<?xml version="1.0" encoding="UTF-8"?>
<!DOCTYPE svg PUBLIC "-//W3C//DTD SVG 1.1//EN" "http://www.w3.org/Graphics/SVG/1.1/DTD/svg11.dtd">
<svg xmlns="http://www.w3.org/2000/svg" version="1.1" width="64px" height="64px" style="shape-rendering:geometricPrecision; text-rendering:geometricPrecision; image-rendering:optimizeQuality; fill-rule:evenodd; clip-rule:evenodd" xmlns:xlink="http://www.w3.org/1999/xlink">
<g><path style="opacity:0.585" fill="#000000" d="M 8.5,0.5 C 9.55198,0.350549 10.552,0.517215 11.5,1C 14.0263,4.02604 16.3596,7.1927 18.5,10.5C 17.1667,11.8333 15.8333,11.8333 14.5,10.5C 13,8.16667 11.5,5.83333 10,3.5C 8.36439,5.89834 6.19772,7.06501 3.5,7C 3.04265,6.58605 2.70931,6.08605 2.5,5.5C 4.5441,3.78057 6.5441,2.1139 8.5,0.5 Z"/></g>
<g><path style="opacity:0.578" fill="#000000" d="M 48.5,10.5 C 48.5,9.83333 48.1667,9.5 47.5,9.5C 47.5,8.83333 47.1667,8.5 46.5,8.5C 46.5,7.83333 46.1667,7.5 45.5,7.5C 46.287,5.89578 47.6203,5.22911 49.5,5.5C 49.7845,7.41467 49.4511,9.08134 48.5,10.5 Z"/></g>
<g><path style="opacity:0.581" fill="#000000" d="M 55.5,7.5 C 54.8333,7.5 54.5,7.83333 54.5,8.5C 53.8333,8.5 53.5,8.83333 53.5,9.5C 52.8333,9.5 52.5,9.83333 52.5,10.5C 51.5489,9.08134 51.2155,7.41467 51.5,5.5C 53.3797,5.22911 54.713,5.89578 55.5,7.5 Z"/></g>
<g><path style="opacity:0.582" fill="#000000" d="M 45.5,7.5 C 46.1667,7.5 46.5,7.83333 46.5,8.5C 47.1667,8.5 47.5,8.83333 47.5,9.5C 48.1667,9.5 48.5,9.83333 48.5,10.5C 49.4511,9.08134 49.7845,7.41467 49.5,5.5C 47.6203,5.22911 46.287,5.89578 45.5,7.5 Z"/></g>
<g><path style="opacity:0.577" fill="#000000" d="M 55.5,7.5 C 57.1042,8.28696 57.7709,9.6203 57.5,11.5C 55.5853,11.7845 53.9187,11.4511 52.5,10.5C 53.1667,10.5 53.5,10.1667 53.5,9.5C 54.1667,9.5 54.5,9.16667 54.5,8.5C 55.1667,8.5 55.5,8.16667 55.5,7.5 Z"/></g>
<g><path style="opacity:0.674" fill="#000000" d="M 19.5,15.5 C 19.5,16.1667 19.8333,16.5 20.5,16.5C 20.3284,17.4916 20.6618,18.1583 21.5,18.5C 19.9652,19.7879 18.2985,19.7879 16.5,18.5C 15.8721,16.7419 14.8721,15.2419 13.5,14C 15.8739,13.2568 17.8739,13.7568 19.5,15.5 Z"/></g>
<g><path style="opacity:0.935" fill="#000000" d="M 43.5,16.5 C 43.5,17.1667 43.8333,17.5 44.5,17.5C 44.5,18.1667 44.8333,18.5 45.5,18.5C 37.5985,19.8129 29.5985,19.8129 21.5,18.5C 21.6716,17.5084 21.3382,16.8417 20.5,16.5C 19.8333,16.5 19.5,16.1667 19.5,15.5C 26.7605,13.5349 34.4271,12.8682 42.5,13.5C 42.2627,14.791 42.596,15.791 43.5,16.5 Z"/></g>
<g><path style="opacity:0.675" fill="#000000" d="M 48.5,15.5 C 47.6618,15.8417 47.3284,16.5084 47.5,17.5C 46.8333,17.8333 46.1667,18.1667 45.5,18.5C 44.8333,18.5 44.5,18.1667 44.5,17.5C 43.8333,17.5 43.5,17.1667 43.5,16.5C 43.5,15.5 43.5,14.5 43.5,13.5C 45.5273,13.3379 47.5273,13.5045 49.5,14C 48.944,14.3826 48.6107,14.8826 48.5,15.5 Z"/></g>
<g><path style="opacity:0.577" fill="#000000" d="M 52.5,14.5 C 53.9187,13.5489 55.5853,13.2155 57.5,13.5C 57.7709,15.3797 57.1042,16.713 55.5,17.5C 55.5,16.8333 55.1667,16.5 54.5,16.5C 54.5,15.8333 54.1667,15.5 53.5,15.5C 53.5,14.8333 53.1667,14.5 52.5,14.5 Z"/></g>
<g><path style="opacity:0.58" fill="#000000" d="M 52.5,14.5 C 53.1667,14.5 53.5,14.8333 53.5,15.5C 54.1667,15.5 54.5,15.8333 54.5,16.5C 55.1667,16.5 55.5,16.8333 55.5,17.5C 57.1042,16.713 57.7709,15.3797 57.5,13.5C 55.5853,13.2155 53.9187,13.5489 52.5,14.5 Z"/></g>
<g><path style="opacity:0.486" fill="#000000" d="M 48.5,15.5 C 49.782,16.7082 49.782,18.0416 48.5,19.5C 47.7025,19.0431 47.3691,18.3764 47.5,17.5C 48.3382,17.1583 48.6716,16.4916 48.5,15.5 Z"/></g>
<g><path style="opacity:0.841" fill="#000000" d="M 18.5,22.5 C 26.8237,21.5603 35.4903,21.3936 44.5,22C 40.968,27.3685 37.6347,32.8685 34.5,38.5C 32.0508,39.9097 29.8841,39.5763 28,37.5C 24.9703,32.3263 21.8036,27.3263 18.5,22.5 Z"/></g>
<g><path style="opacity:1" fill="#000000" d="M 30.5,41.5 C 31.8048,43.3972 32.4714,45.7305 32.5,48.5C 32.1667,50.8333 31.8333,53.1667 31.5,55.5C 30.5067,50.8804 30.1734,46.2137 30.5,41.5 Z"/></g>
<g><path style="opacity:0.987" fill="#000000" d="M 22.5,57.5 C 28.5368,57.1707 34.5368,57.5041 40.5,58.5C 37.5,58.8333 34.5,59.1667 31.5,59.5C 28.0866,59.483 25.0866,58.8164 22.5,57.5 Z"/></g>
</svg>
